PathFileType	4	(X/Y/Z)	C:/Users/beibeiliu/ov580/test_trc/capture2\sequence.17_training_dense_right.trc
DataRate	CameraRate	NumFrames	NumMarkers	Units	OrigDataRate	OrigDataStartFrame	OrigNumFrames
120	120	14	19	mm	120	251	400
Frame#	Time	ThumbCMC			ThumbMCP			ThumbIP			ThumbTip			IndexMCP			IndexPIP			IndexTip			MiddleMCP			MiddlePIP			MiddleTip			RingMCP			RingPIP			RingTip			PinkyMCP			PinkyPIP			PinkyTip			BackHand1			BackHand2			BackHand3	
		X0	Y0	Z0	X1	Y1	Z1	X2	Y2	Z2	X3	Y3	Z3	X4	Y4	Z4	X5	Y5	Z5	X6	Y6	Z6	X7	Y7	Z7	X8	Y8	Z8	X9	Y9	Z9	X10	Y10	Z10	X11	Y11	Z11	X12	Y12	Z12	X13	Y13	Z13	X14	Y14	Z14	X15	Y15	Z15	X16	Y16	Z16	X17	Y17	Z17	X18	Y18	Z18	
250	2.08333	120.296	52.2454	25.3634	101.084	45.2809	4.40535	85.1343	57.0357	-18.5668	92.9282	77.2247	-36.8309	76.4046	102.496	-8.83478	67.9399	113.4	-32.5217	72.9277	98.9213	-60.5572	88.125	118.98	-16.9947	78.7134	122.469	-48.6872	96.597	94.2023	-64.2888	107.539	128.455	-20.7799	96.593	129.281	-50.6509	111.621	97.7477	-61.7135	126.79	131.085	-20.7662	112.687	133.906	-48.0243	118.439	105.562	-61.4119	135.27	110.802	17.5436	151.718	101.168	35.4212	118.989	86.9853	31.4545	
251	2.09167	125.756	51.2164	28.5697	109.055	47.1563	6.75883	93.6667	56.344	-15.1053	96.8811	79.6453	-36.0374	82.6909	97.6219	-4.96272	66.3671	108.16	-32.6789	79.2582	94.3121	-62.1281	88.82	115.907	-13.8699	79.3664	119.298	-46.6999	95.9512	93.0211	-63.3298	106.069	126.672	-19.3852	98.078	128.93	-50.0059	112.374	98.0363	-59.8417	129.309	133.111	-19.3458	113.68	132.783	-45.5258	118.077	104.867	-61.504	135.757	113.563	17.1844	157.405	105.689	34.7166	124.18	87.8686	32.4283	
252	2.1	131.251	52.5576	28.2655	109.459	49.2546	6.37439	96.1521	58.0877	-15.4853	102.114	76.3794	-32.8463	89.1364	102.124	-5.2001	72.0005	109.679	-32.8093	79.4514	92.7331	-61.32	92.2358	117.848	-14.4457	82.5545	122.297	-44.3411	101.447	91.2124	-60.9746	109.098	127.156	-19.1574	99.3244	128.886	-49.089	114.86	98.3373	-60.0143	128.957	130.27	-18.25	116.83	135.409	-45.3942	122.982	107.86	-62.4015	142.104	116.711	17.5599	162.029	108.261	36.3921	129.922	91.0456	33.9556	
253	2.10833	132.642	56.1843	28.741	116.719	49.8877	9.10084	97.0806	60.8885	-16.149	101.758	80.5687	-34.9381	88.3434	101.4	-4.16148	73.3043	110.45	-31.0859	80.1222	97.0873	-57.936	93.9104	117.525	-13.9421	85.3541	121.05	-47.217	103.162	91.9869	-61.6873	111.72	131.04	-19.2875	101.259	129.172	-46.573	116.251	99.9003	-59.1469	134.484	134.413	-19.3951	118.626	137.128	-42.9235	124.463	109.4	-62.0757	144.479	117.611	15.2844	161.346	108.659	38.8804	133.082	93.4105	35.472	
254	2.11667	138.562	58.86	29.2299	118.734	54.3298	7.70937	102.878	64.4317	-13.4513	109.754	84.6702	-31.6484	91.3765	108.615	-6.29304	79.5258	115.365	-30.4215	85.1413	96.0153	-60.3931	97.5057	120.755	-13.3809	87.2254	123.683	-45.8639	108.165	95.296	-60.9989	114.061	133.152	-18.5952	102.991	131.054	-47.8592	120.161	102.056	-57.8316	137.817	139.111	-18.4604	119.187	135.808	-43.5775	126.876	111.744	-57.9101	149.785	121.256	18.0748	161.979	110.728	37.8755	134.963	93.2235	36.5728	
255	2.125	139.009	60.0235	30.4005	116.513	59.2413	6.55743	100.958	68.0108	-15.9687	108.097	90.7722	-35.4875	95.1253	109.604	-4.42515	79.3366	119.514	-31.8848	88.9265	102.158	-61.2417	99.9911	127.908	-14.2152	91.3146	130.782	-44.9098	108.107	105.363	-61.6669	119.844	135.971	-17.4214	108.488	135.414	-50.1205	122.232	108.839	-58.1373	141.834	142.74	-17.3552	125.671	142.903	-43.6073	129.426	117.085	-57.9243	149.558	123.492	16.4684	167.883	112.445	40.6784	134.921	95.3599	35.0382	
256	2.13333	136.017	68.1186	27.4814	118.06	64.4969	5.23229	103.843	75.7036	-16.3364	110.828	93.0503	-32.5851	97.5754	119.043	-7.20239	82.4211	127.578	-31.3437	91.8025	112.034	-60.3924	107.626	135.34	-12.832	96.5929	140.105	-44.8608	110.951	110.325	-62.5509	118.743	142.172	-18.574	115.699	144.842	-48.4808	125.983	115.264	-60.0048	143.676	147.934	-17.4495	129.417	146.478	-42.9101	134.027	123.98	-59.3237	151.078	125.289	19.2546	166.582	116.079	40.4406	139.304	102.933	37.2986	
257	2.14167	135.038	69.5581	29.4619	119.194	70.6608	5.20291	104.308	79.4501	-17.2368	112.801	100.982	-34.7952	97.5584	125.686	-8.07706	90.3654	136.708	-37.1033	97.1903	120.734	-61.3631	107.624	141.801	-13.3901	100.567	147.825	-43.8631	116.506	119.442	-63.5586	125.892	148.576	-17.7587	120.613	150.854	-49.0533	129.542	122.16	-60.5102	150.96	150.683	-17.3562	138.808	155.116	-41.978	140.955	126.424	-60.0767	154.777	131.433	16.8413	169.78	120.283	40.6366	140.049	106.487	36.4109	
258	2.15	134.993	75.8441	27.7244	112.975	76.8376	2.38905	104.315	88.7824	-19.5215	114.981	108.821	-38.9558	105.97	135.407	-7.8334	96.5179	147.46	-38.3167	104.742	132.624	-61.2922	118.193	151.651	-15.2255	107.169	155.454	-48.229	122.601	126.639	-64.2871	136.057	159.425	-19.5043	127.979	159.152	-49.8653	137.955	127.44	-60.7808	158.885	151.317	-15.9259	148.89	161.23	-44.7395	145.127	133.101	-59.8823	158.299	134.696	20.2401	174.469	123.415	39.3639	138.011	112.499	36.0669	
259	2.15833	130.614	82.5964	26.3296	115.186	86.2514	0.583427	106.484	98.6194	-21.5075	117.863	114.291	-39.7555	107.573	144.985	-11.0543	102.05	156.311	-38.922	109.289	137.766	-65.4354	125.041	161.678	-18.377	116.529	164.472	-48.0285	131.575	138.162	-66.3358	142.422	160.494	-17.1489	139.463	167.685	-46.6234	141.837	137.113	-61.7095	166.882	159.447	-15.4284	156.433	165.058	-44.9849	153.017	141.766	-62.1042	163.61	140.127	18.2038	178.025	122.029	41.5687	138.955	114.295	35.6424	
260	2.16667	127.908	86.4321	24.8558	113.296	90.5645	0.941616	105.164	106.015	-24.3529	121.656	122.838	-43.9728	118.166	154.18	-14.28	114.696	166.133	-40.0871	118.792	144.075	-66.5494	133.941	163.061	-17.4588	129.179	172.874	-49.4711	137.589	141.059	-67.0951	150.938	165.168	-19.82	147.402	170.37	-50.3093	151.041	138.829	-63.3171	174.552	160.904	-15.9499	167.981	168.448	-43.1555	162.921	143.986	-61.9403	169.907	137.173	19.0853	176.891	120.95	41.566	141.72	123.058	31.3736	
261	2.175	127.942	92.1786	22.8995	110.967	100.5	-3.63772	110.136	116.638	-28.389	131.547	125.712	-41.4747	123.691	157.396	-16.8606	118.598	171.254	-43.1353	127.494	149.225	-68.5709	138.619	168.841	-21.6407	141.169	174.747	-53.1403	143.783	139.634	-68.3936	159.634	168.266	-22.4014	160.152	172.621	-51.3944	156.991	137.948	-63.8997	181.195	154.475	-16.3272	177.172	167.248	-45.5637	165.545	139.969	-61.4832	171.769	139.052	16.972	174.464	119.671	39.8132	142.813	122.84	29.5696	
262	2.18333	123.18	97.854	18.0714	108.296	101.164	-4.89913	106.171	117.33	-30.5121	131.119	125.76	-46.196	128.475	161.596	-23.4893	131.606	171.167	-49.811	136.018	147.908	-73.372	148.884	168.809	-27.1059	149.188	172.442	-60.3292	151.559	139.319	-70.6658	166.676	164.428	-24.6802	165.065	167.784	-56.6892	165.318	134.311	-66.277	186.142	153.635	-20.5857	183.231	162.778	-48.1304	175.3	137.373	-63.8848	176.759	135.156	16.2007	176.737	120.88	39.0614	143.643	127.859	25.1411	
263	2.19167	121.141	100.226	13.7717	107.067	105.641	-9.33181	111.193	120.215	-36.8385	133.976	123.33	-50.4152	132.1	160.224	-28.8759	133.264	169.034	-58.4041	138.296	145.78	-77.9748	153.616	164.204	-31.4439	155.081	169	-63.0205	151.998	132.789	-74.9673	170.25	161.347	-29.6246	174.514	162.708	-61.6044	170.218	130.072	-69.0372	190.708	147.23	-22.8143	188.333	154.164	-52.463	176.66	129.357	-66.7967	174.464	133.002	12.6462	174.148	118.18	37.0355	142.768	123.654	22.2115	
